<svg width="256" height="243" viewBox="0 0 256 243" fill="none" xmlns="http://www.w3.org/2000/svg">
<path d="M256 104.618C256 180.566 194.515 242.133 118.669 242.133C42.8239 242.133 -26.3118 171.342 9.91633 104.618C143.278 -141.002 56.3188 122.9 132.164 122.9C208.01 122.9 256 -50.3847 256 104.618Z" fill="black"/>
<path d="M198.871 186.95C199.928 183.815 196.36 182.727 193.486 184.366C191.024 185.77 187.86 186.768 184.11 186.254C174.526 184.945 165.684 163.871 146.877 156.162C134.169 150.955 125.035 153.582 120.445 155.835C118.475 156.803 115.864 156.62 114.048 155.388C109.817 152.518 101.14 148.646 87.8343 152.034C68.1374 157.049 56.4446 176.688 46.7759 176.651C42.9887 176.637 39.9927 175.209 37.7489 173.475C35.131 171.452 31.4466 172.035 32.0583 175.286C32.6164 178.252 34.0215 181.949 37.081 186.203C45.3077 197.647 70.0178 203.94 86.3809 200.519C98.0127 198.085 106.498 192.34 111.143 188.468C113.253 186.71 116.756 187.045 118.535 189.137C122.451 193.741 129.941 200.721 141.568 204.378C157.515 209.393 182.641 207.25 192.381 197.063C196.002 193.275 197.906 189.81 198.871 186.95Z" fill="white"/>
</svg>
